<svg width="28" height="30" viewBox="0 0 28 30" fill="none" xmlns="http://www.w3.org/2000/svg">
<path d="M16.3293 8.57459L9.62853 15.1441C8.99153 15.7741 8.64153 16.6351 8.65553 17.5398C8.67462 18.4551 9.05156 19.3265 9.70553 19.9671C10.3618 20.6163 11.2455 20.9891 12.1608 21.0048C12.6088 21.0143 13.0542 20.934 13.4708 20.7687C13.8873 20.6034 14.2666 20.3564 14.5863 20.0423L21.2853 13.4728C21.9173 12.8476 22.4157 12.1005 22.7502 11.2769C23.0847 10.4532 23.2484 9.57017 23.2313 8.68134C23.1945 6.8507 22.4419 5.10735 21.1348 3.82509C19.8241 2.52809 18.0644 1.78548 16.2208 1.75134C15.3256 1.73348 14.4359 1.8942 13.6036 2.22412C12.7713 2.55404 12.0131 3.04654 11.3733 3.67284L4.66903 10.2441C3.72176 11.1824 2.97479 12.3031 2.47335 13.5386C1.97191 14.774 1.72643 16.0983 1.75178 17.4313C1.80813 20.1766 2.93766 22.7906 4.89828 24.7131C6.86329 26.6581 9.50145 27.7723 12.2658 27.8246C13.609 27.8526 14.9443 27.6122 16.1935 27.1176C17.4427 26.623 18.5806 25.8841 19.5405 24.9441L26.2413 18.3711" stroke="#D8E3F4" stroke-width="3.5" stroke-linecap="round" stroke-linejoin="round"/>
</svg>
