<svg width="35" height="26" viewBox="0 0 35 26" fill="none" xmlns="http://www.w3.org/2000/svg">
<path d="M5.12576 0.512376C5.45582 0.193599 5.89787 0.017209 6.35672 0.0211962C6.81556 0.0251835 7.25448 0.20923 7.57895 0.533694C7.90341 0.858158 8.08746 1.29708 8.09144 1.75592C8.09543 2.21477 7.91904 2.65682 7.60026 2.98688C6.29793 4.28522 5.26521 5.82829 4.56152 7.52729C3.85783 9.22629 3.49708 11.0477 3.50001 12.8866C3.49708 14.7256 3.85783 16.547 4.56152 18.246C5.26521 19.945 6.29793 21.488 7.60026 22.7864C7.77385 22.9461 7.91333 23.1394 8.01034 23.3544C8.10735 23.5694 8.15988 23.8019 8.16477 24.0378C8.16965 24.2736 8.1268 24.508 8.03878 24.7269C7.95076 24.9458 7.8194 25.1446 7.65258 25.3114C7.48576 25.4783 7.28694 25.6096 7.06806 25.6976C6.84917 25.7857 6.61476 25.8285 6.37889 25.8236C6.14303 25.8187 5.91059 25.7662 5.69554 25.6692C5.48049 25.5722 5.28728 25.4327 5.12751 25.2591C3.50005 23.6362 2.20927 21.7077 1.32933 19.5845C0.449396 17.4612 -0.00236101 15.185 1.32667e-05 12.8866C-0.00282115 10.5881 0.448548 8.31163 1.32819 6.18805C2.20783 4.06448 3.4984 2.13565 5.12576 0.512376ZM27.3998 0.512376C27.7279 0.184301 28.173 0 28.637 0C29.1011 0 29.5461 0.184301 29.8743 0.512376C31.5016 2.13565 32.7922 4.06448 33.6718 6.18805C34.5515 8.31163 35.0028 10.5881 35 12.8866C35.0028 15.1852 34.5515 17.4616 33.6718 19.5852C32.7922 21.7088 31.5016 23.6376 29.8743 25.2609C29.5442 25.5797 29.1022 25.756 28.6433 25.7521C28.1845 25.7481 27.7455 25.564 27.4211 25.2396C27.0966 24.9151 26.9126 24.4762 26.9086 24.0173C26.9046 23.5585 27.081 23.1164 27.3998 22.7864C28.7021 21.488 29.7348 19.945 30.4385 18.246C31.1422 16.547 31.5029 14.7256 31.5 12.8866C31.5029 11.0477 31.1422 9.22629 30.4385 7.52729C29.7348 5.82829 28.7021 4.28522 27.3998 2.98688C27.0717 2.6587 26.8874 2.21366 26.8874 1.74963C26.8874 1.28559 27.0717 0.840549 27.3998 0.512376ZM12.551 5.46138C12.7137 5.6239 12.8428 5.81691 12.9309 6.02935C13.0189 6.2418 13.0643 6.46952 13.0643 6.6995C13.0643 6.92948 13.0189 7.1572 12.9309 7.36965C12.8428 7.58209 12.7137 7.7751 12.551 7.93763C11.8994 8.58633 11.3827 9.35764 11.0307 10.207C10.6786 11.0565 10.4983 11.9672 10.5 12.8866C10.5 14.8641 11.3173 16.6456 12.635 17.9214C12.8074 18.0793 12.9464 18.2702 13.0438 18.4828C13.1412 18.6953 13.195 18.9252 13.202 19.1589C13.2091 19.3926 13.1692 19.6253 13.0848 19.8434C13.0004 20.0614 12.8732 20.2603 12.7106 20.4284C12.5481 20.5964 12.3535 20.7302 12.1384 20.8218C11.9233 20.9134 11.692 20.961 11.4582 20.9617C11.2244 20.9624 10.9928 20.9163 10.7772 20.826C10.5615 20.7357 10.3661 20.6032 10.2025 20.4361C9.18952 19.457 8.38395 18.2839 7.83376 16.9869C7.28357 15.69 7.00003 14.2955 7.00001 12.8866C7.00001 9.98688 8.17776 7.36013 10.0748 5.46138C10.2373 5.29867 10.4303 5.16959 10.6427 5.08152C10.8552 4.99345 11.0829 4.94812 11.3129 4.94812C11.5429 4.94812 11.7706 4.99345 11.983 5.08152C12.1955 5.16959 12.3885 5.29867 12.551 5.46138ZM24.9935 5.53138C26.9237 7.49251 28.0038 10.135 28 12.8866C28.0021 14.2658 27.7315 15.6319 27.2038 16.9062C26.6762 18.1805 25.9018 19.3379 24.9253 20.3119C24.5969 20.6402 24.1515 20.8247 23.6871 20.8247C23.2228 20.8247 22.7774 20.6402 22.449 20.3119C22.1206 19.9835 21.9362 19.5381 21.9362 19.0737C21.9362 18.6094 22.1206 18.164 22.449 17.8356C23.1006 17.1869 23.6173 16.4156 23.9694 15.5662C24.3214 14.7168 24.5017 13.8061 24.5 12.8866C24.5 10.9774 23.737 9.24663 22.4963 7.98313C22.1791 7.65041 22.0056 7.20627 22.0132 6.74668C22.0208 6.28708 22.209 5.84893 22.537 5.52691C22.865 5.20488 23.3065 5.02483 23.7662 5.02567C24.2258 5.02651 24.6667 5.20816 24.9935 5.53138ZM17.5 10.2616C18.1962 10.2616 18.8639 10.5382 19.3562 11.0305C19.8485 11.5228 20.125 12.1904 20.125 12.8866C20.125 13.5828 19.8485 14.2505 19.3562 14.7428C18.8639 15.2351 18.1962 15.5116 17.5 15.5116C16.8038 15.5116 16.1361 15.2351 15.6439 14.7428C15.1516 14.2505 14.875 13.5828 14.875 12.8866C14.875 12.1904 15.1516 11.5228 15.6439 11.0305C16.1361 10.5382 16.8038 10.2616 17.5 10.2616Z" fill="#D8E3F4"/>
</svg>
