<svg width="35" height="35" viewBox="0 0 35 35" fill="none" xmlns="http://www.w3.org/2000/svg">
<path d="M7.00003 0H28.0001C29.8567 0 31.6371 0.737501 32.9499 2.05026C34.2627 3.36302 35.0002 5.14351 35.0002 7.00003V17.5001H31.5001V7.00003C31.5001 6.07177 31.1314 5.18153 30.475 4.52515C29.8186 3.86877 28.9284 3.50002 28.0001 3.50002H7.00003C6.07177 3.50002 5.18153 3.86877 4.52515 4.52515C3.86877 5.18153 3.50002 6.07177 3.50002 7.00003V28.0001C3.50002 28.9284 3.86877 29.8186 4.52515 30.475C5.18153 31.1314 6.07177 31.5001 7.00003 31.5001H17.5001V35.0002H7.00003C5.14351 35.0002 3.36302 34.2627 2.05026 32.9499C0.737501 31.6371 0 29.8567 0 28.0001V7.00003C0 5.14351 0.737501 3.36302 2.05026 2.05026C3.36302 0.737501 5.14351 0 7.00003 0ZM17.5001 10.5C19.3566 10.5 21.1371 11.2376 22.4499 12.5503C23.7626 13.8631 24.5001 15.6436 24.5001 17.5001C24.5001 19.3566 23.7626 21.1371 22.4499 22.4499C21.1371 23.7626 19.3566 24.5001 17.5001 24.5001C15.6436 24.5001 13.8631 23.7626 12.5503 22.4499C11.2376 21.1371 10.5 19.3566 10.5 17.5001C10.5 15.6436 11.2376 13.8631 12.5503 12.5503C13.8631 11.2376 15.6436 10.5 17.5001 10.5ZM28.0001 24.5001C28.9284 24.5001 29.8186 24.8689 30.475 25.5252C31.1314 26.1816 31.5001 27.0719 31.5001 28.0001C31.5001 28.9284 31.1314 29.8186 30.475 30.475C29.8186 31.1314 28.9284 31.5001 28.0001 31.5001C27.0719 31.5001 26.1816 31.1314 25.5252 30.475C24.8689 29.8186 24.5001 28.9284 24.5001 28.0001C24.5001 27.0719 24.8689 26.1816 25.5252 25.5252C26.1816 24.8689 27.0719 24.5001 28.0001 24.5001Z" fill="#D8E3F4"/>
</svg>
