<svg width="35" height="42" viewBox="0 0 35 42" fill="none" xmlns="http://www.w3.org/2000/svg">
<path d="M33.25 21C33.7141 21 34.1591 21.1845 34.4873 21.5127C34.8155 21.8409 35 22.2859 35 22.75V26.25C35 26.7141 34.8155 27.1591 34.4873 27.4873C34.1591 27.8155 33.7141 28 33.25 28V35C27.403 35.0029 21.7745 37.2234 17.5 41.2129C13.2302 37.2158 7.59871 34.9941 1.75 35V28C1.28587 28 0.840884 27.8155 0.512695 27.4873C0.184507 27.1591 0 26.7141 0 26.25V22.75C2.20994e-07 22.2859 0.184507 21.8409 0.512695 21.5127C0.840884 21.1845 1.28587 21 1.75 21V15.75C7.08503 15.7483 12.254 17.6047 16.3691 21H18.6309C22.746 17.6047 27.915 15.7483 33.25 15.75V21ZM19.25 19.25H15.75V17.5H19.25V19.25ZM19.25 15.75H15.75V14H10.5C9.10804 13.9986 7.77333 13.4452 6.78906 12.4609C5.8048 11.4767 5.25139 10.142 5.25 8.75V5.25C5.25139 3.85804 5.8048 2.52333 6.78906 1.53906C7.77333 0.554798 9.10804 0.00138988 10.5 0H24.5C25.892 0.00138988 27.2267 0.554798 28.2109 1.53906C29.1952 2.52333 29.7486 3.85804 29.75 5.25V8.75C29.7486 10.142 29.1952 11.4767 28.2109 12.4609C27.2267 13.4452 25.892 13.9986 24.5 14H19.25V15.75ZM10.5 3.5C10.0359 3.5 9.59088 3.68451 9.2627 4.0127C8.93451 4.34088 8.75 4.78587 8.75 5.25V8.75C8.75 9.21413 8.93451 9.65912 9.2627 9.9873C9.59088 10.3155 10.0359 10.5 10.5 10.5H24.5C24.9641 10.5 25.4091 10.3155 25.7373 9.9873C26.0655 9.65912 26.25 9.21413 26.25 8.75V5.25C26.25 4.78587 26.0655 4.34088 25.7373 4.0127C25.4091 3.68451 24.9641 3.5 24.5 3.5H10.5ZM12.25 5.25C13.2165 5.25 14 6.0335 14 7C14 7.9665 13.2165 8.75 12.25 8.75C11.2835 8.75 10.5 7.9665 10.5 7C10.5 6.0335 11.2835 5.25 12.25 5.25ZM19.25 8.75H15.75V7H19.25V8.75ZM22.75 5.25C23.7165 5.25 24.5 6.0335 24.5 7C24.5 7.9665 23.7165 8.75 22.75 8.75C21.7835 8.75 21 7.9665 21 7C21 6.0335 21.7835 5.25 22.75 5.25Z" fill="#D8E3F4"/>
</svg>
