<svg width="45" height="45" viewBox="0 0 45 45" fill="none" xmlns="http://www.w3.org/2000/svg">
<path d="M10.125 6.75C10.4234 6.75 10.7095 6.86853 10.9205 7.07951C11.1315 7.29048 11.25 7.57663 11.25 7.875V37.125C11.25 37.4234 11.1315 37.7095 10.9205 37.9205C10.7095 38.1315 10.4234 38.25 10.125 38.25C9.82663 38.25 9.54048 38.1315 9.32951 37.9205C9.11853 37.7095 9 37.4234 9 37.125V7.875C9 7.57663 9.11853 7.29048 9.32951 7.07951C9.54048 6.86853 9.82663 6.75 10.125 6.75ZM22.3807 7.2315C21.9574 6.94714 21.4648 6.78324 20.9554 6.75732C20.4461 6.7314 19.9394 6.84444 19.4894 7.08435C19.0394 7.32427 18.6631 7.68201 18.4007 8.11932C18.1384 8.55663 17.9999 9.05704 18 9.567V35.442C18 35.9535 18.1394 36.4554 18.4034 36.8935C18.6673 37.3317 19.0458 37.6896 19.498 37.9286C19.9502 38.1677 20.4591 38.2789 20.9698 38.2503C21.4806 38.2217 21.9738 38.0543 22.3965 37.7663L41.5215 24.732C41.901 24.4728 42.2113 24.1246 42.4251 23.7178C42.6389 23.311 42.7497 22.858 42.748 22.3985C42.7462 21.9389 42.6318 21.4868 42.4149 21.0817C42.1979 20.6765 41.885 20.3307 41.5035 20.0745L22.3807 7.2315Z" fill="#D8E3F4"/>
</svg>
