<svg width="35" height="35" viewBox="0 0 35 35" fill="none" xmlns="http://www.w3.org/2000/svg">
<path d="M3.5 35C2.5375 35 1.71383 34.6576 1.029 33.9728C0.344167 33.2879 0.00116667 32.4637 0 31.5V14C0 13.0375 0.343 12.2138 1.029 11.529C1.715 10.8442 2.53867 10.5012 3.5 10.5H31.5C32.4625 10.5 33.2868 10.843 33.9728 11.529C34.6588 12.215 35.0012 13.0387 35 14V31.5C35 32.4625 34.6576 33.2868 33.9728 33.9728C33.2879 34.6588 32.4637 35.0012 31.5 35H3.5ZM15.3562 28.8313L23.4062 23.4938C23.6688 23.3188 23.8 23.0708 23.8 22.75C23.8 22.4292 23.6688 22.1812 23.4062 22.0062L15.3562 16.6687C15.0646 16.4646 14.7653 16.4424 14.4585 16.6023C14.1517 16.7621 13.9988 17.0176 14 17.3688V28.1313C14 28.4813 14.1534 28.7368 14.4602 28.8978C14.7671 29.0588 15.0657 29.0366 15.3562 28.8313ZM5.25 8.75C4.75417 8.75 4.33883 8.582 4.004 8.246C3.66917 7.91 3.50117 7.49467 3.5 7C3.49883 6.50533 3.66683 6.09 4.004 5.754C4.34117 5.418 4.7565 5.25 5.25 5.25H29.75C30.2458 5.25 30.6617 5.418 30.9977 5.754C31.3337 6.09 31.5012 6.50533 31.5 7C31.4988 7.49467 31.3308 7.91058 30.996 8.24775C30.6612 8.58492 30.2458 8.75233 29.75 8.75H5.25ZM10.5 3.5C10.0042 3.5 9.58883 3.332 9.254 2.996C8.91917 2.66 8.75117 2.24467 8.75 1.75C8.74883 1.25533 8.91683 0.84 9.254 0.504C9.59117 0.168 10.0065 0 10.5 0H24.5C24.9958 0 25.4117 0.168 25.7477 0.504C26.0837 0.84 26.2512 1.25533 26.25 1.75C26.2488 2.24467 26.0808 2.66058 25.746 2.99775C25.4112 3.33492 24.9958 3.50233 24.5 3.5H10.5Z" fill="#D8E3F4"/>
</svg>
