<svg width="42" height="31" viewBox="0 0 42 31" fill="none" xmlns="http://www.w3.org/2000/svg">
<path d="M39.9729 1.68705L32.6229 0.100387C32.0047 -0.0338076 31.365 -0.0334576 30.747 0.101414C30.129 0.236285 29.5472 0.502521 29.0412 0.882054L6.83955 17.0171L1.50788 16.7837C1.20249 16.7733 0.901554 16.8591 0.647562 17.029C0.39357 17.1989 0.199358 17.4443 0.0923484 17.7305C-0.0146612 18.0167 -0.0290616 18.3293 0.0511808 18.6242C0.131423 18.919 0.302254 19.1812 0.539552 19.3737L5.73122 23.4921C5.81669 23.561 5.91842 23.6069 6.02668 23.6252C6.13495 23.6436 6.24611 23.6339 6.34955 23.5971C7.83122 23.0254 13.3496 20.0971 19.8712 16.5154L21.1779 29.9437C21.189 30.06 21.2316 30.1711 21.3012 30.2649C21.3707 30.3588 21.4646 30.4319 21.5727 30.4763C21.6807 30.5207 21.7989 30.5348 21.9143 30.517C22.0298 30.4992 22.1382 30.4503 22.2279 30.3754L25.1446 27.9487C25.3042 27.8148 25.4116 27.6289 25.4479 27.4237L28.2129 11.9187C32.8796 9.32872 37.3362 6.82039 40.4746 5.04705C40.8002 4.86983 41.0636 4.59679 41.2289 4.2649C41.3942 3.93301 41.4535 3.55833 41.3987 3.19162C41.344 2.8249 41.1778 2.48388 40.9228 2.21476C40.6677 1.94563 40.3361 1.76141 39.9729 1.68705Z" fill="#D8E3F4"/>
</svg>
