<svg width="35" height="35" viewBox="0 0 35 35" fill="none" xmlns="http://www.w3.org/2000/svg">
<path fill-rule="evenodd" clip-rule="evenodd" d="M2.562 2.562C0 5.1275 0 9.2505 0 17.5C0 25.7495 0 29.8742 2.562 32.4362C5.1275 35 9.2505 35 17.5 35C25.7495 35 29.8742 35 32.4362 32.4362C35 29.876 35 25.7495 35 17.5C35 9.2505 35 5.12575 32.4362 2.562C29.876 0 25.7495 0 17.5 0C9.2505 0 5.12575 0 2.562 2.562ZM7.742 13.16C7.96484 12.8927 8.28468 12.7249 8.63122 12.6934C8.97776 12.6619 9.32262 12.7693 9.59 12.992L10.0747 13.3945C11.1335 14.2765 12.0347 15.0273 12.6577 15.7185C13.321 16.4535 13.8372 17.2952 13.8372 18.375C13.8372 19.4547 13.321 20.2982 12.6577 21.0315C12.0347 21.7227 11.1335 22.4735 10.0747 23.3555L9.59 23.758C9.45828 23.8732 9.30485 23.961 9.13872 24.016C8.9726 24.0711 8.79714 24.0924 8.62267 24.0786C8.4482 24.0649 8.27824 24.0163 8.12279 23.9359C7.96735 23.8555 7.82955 23.7449 7.71751 23.6104C7.60547 23.476 7.52145 23.3205 7.4704 23.1531C7.41934 22.9857 7.40228 22.8097 7.42021 22.6357C7.43815 22.4616 7.49072 22.2928 7.57483 22.1394C7.65894 21.9859 7.7729 21.8508 7.91 21.742L8.3195 21.4008C9.47275 20.4383 10.227 19.8082 10.71 19.2727C11.1685 18.7652 11.2122 18.5255 11.2122 18.375C11.2122 18.2245 11.1685 17.9865 10.71 17.4773C10.2252 16.9418 9.47275 16.31 8.3195 15.3492L7.91 15.008C7.64275 14.7852 7.47493 14.4653 7.44342 14.1188C7.41192 13.7722 7.51931 13.4274 7.742 13.16ZM27.5625 22.75C27.5625 23.0981 27.4242 23.4319 27.1781 23.6781C26.9319 23.9242 26.5981 24.0625 26.25 24.0625H17.5C17.1519 24.0625 16.8181 23.9242 16.5719 23.6781C16.3258 23.4319 16.1875 23.0981 16.1875 22.75C16.1875 22.4019 16.3258 22.0681 16.5719 21.8219C16.8181 21.5758 17.1519 21.4375 17.5 21.4375H26.25C26.5981 21.4375 26.9319 21.5758 27.1781 21.8219C27.4242 22.0681 27.5625 22.4019 27.5625 22.75Z" fill="#D8E3F4"/>
</svg>
