<svg width="45" height="45" viewBox="0 0 45 45" fill="none" xmlns="http://www.w3.org/2000/svg">
<path d="M34.875 6.75C34.5766 6.75 34.2905 6.86853 34.0795 7.07951C33.8685 7.29048 33.75 7.57663 33.75 7.875V37.125C33.75 37.4234 33.8685 37.7095 34.0795 37.9205C34.2905 38.1315 34.5766 38.25 34.875 38.25C35.1734 38.25 35.4595 38.1315 35.6705 37.9205C35.8815 37.7095 36 37.4234 36 37.125V7.875C36 7.57663 35.8815 7.29048 35.6705 7.07951C35.4595 6.86853 35.1734 6.75 34.875 6.75ZM22.6193 7.2315C23.0426 6.94714 23.5352 6.78324 24.0446 6.75732C24.5539 6.7314 25.0606 6.84444 25.5106 7.08435C25.9606 7.32427 26.3369 7.68201 26.5993 8.11932C26.8616 8.55663 27.0001 9.05704 27 9.567V35.442C27 35.9535 26.8606 36.4554 26.5966 36.8935C26.3327 37.3317 25.9542 37.6896 25.502 37.9286C25.0498 38.1677 24.5409 38.2789 24.0302 38.2503C23.5194 38.2217 23.0262 38.0543 22.6035 37.7663L3.4785 24.732C3.09898 24.4728 2.78874 24.1246 2.57493 23.7178C2.36113 23.311 2.25026 22.858 2.25203 22.3985C2.25381 21.9389 2.36818 21.4868 2.58512 21.0817C2.80207 20.6765 3.11499 20.3307 3.49651 20.0745L22.6193 7.2315Z" fill="#D8E3F4"/>
</svg>
