<svg width="39" height="35" viewBox="0 0 39 35" fill="none" xmlns="http://www.w3.org/2000/svg">
<path d="M19.25 0C20.1783 0 21.0685 0.368749 21.7249 1.02513C22.3813 1.6815 22.75 2.57174 22.75 3.5C22.75 4.795 22.05 5.9325 21 6.5275V8.75H22.75C25.9989 8.75 29.1147 10.0406 31.4121 12.3379C33.7094 14.6353 35 17.7511 35 21H36.75C37.2141 21 37.6592 21.1844 37.9874 21.5126C38.3156 21.8408 38.5 22.2859 38.5 22.75V28C38.5 28.4641 38.3156 28.9092 37.9874 29.2374C37.6592 29.5656 37.2141 29.75 36.75 29.75H35V31.5C35 32.4283 34.6313 33.3185 33.9749 33.9749C33.3185 34.6313 32.4283 35 31.5 35H7C6.07174 35 5.1815 34.6313 4.52513 33.9749C3.86875 33.3185 3.5 32.4283 3.5 31.5V29.75H1.75C1.28587 29.75 0.840752 29.5656 0.512563 29.2374C0.184374 28.9092 0 28.4641 0 28V22.75C0 22.2859 0.184374 21.8408 0.512563 21.5126C0.840752 21.1844 1.28587 21 1.75 21H3.5C3.5 17.7511 4.79062 14.6353 7.08794 12.3379C9.38526 10.0406 12.5011 8.75 15.75 8.75H17.5V6.5275C16.45 5.9325 15.75 4.795 15.75 3.5C15.75 2.57174 16.1187 1.6815 16.7751 1.02513C17.4315 0.368749 18.3217 0 19.25 0ZM11.375 19.25C10.2147 19.25 9.10188 19.7109 8.28141 20.5314C7.46094 21.3519 7 22.4647 7 23.625C7 24.7853 7.46094 25.8981 8.28141 26.7186C9.10188 27.5391 10.2147 28 11.375 28C12.5353 28 13.6481 27.5391 14.4686 26.7186C15.2891 25.8981 15.75 24.7853 15.75 23.625C15.75 22.4647 15.2891 21.3519 14.4686 20.5314C13.6481 19.7109 12.5353 19.25 11.375 19.25ZM27.125 19.25C25.9647 19.25 24.8519 19.7109 24.0314 20.5314C23.2109 21.3519 22.75 22.4647 22.75 23.625C22.75 24.7853 23.2109 25.8981 24.0314 26.7186C24.8519 27.5391 25.9647 28 27.125 28C28.2853 28 29.3981 27.5391 30.2186 26.7186C31.0391 25.8981 31.5 24.7853 31.5 23.625C31.5 22.4647 31.0391 21.3519 30.2186 20.5314C29.3981 19.7109 28.2853 19.25 27.125 19.25Z" fill="#D8E3F4"/>
</svg>
