<svg width="50" height="50" viewBox="0 0 50 50" fill="none" xmlns="http://www.w3.org/2000/svg">
<path d="M24.084 33.9126C24.377 34.2052 24.7741 34.3695 25.1881 34.3695C25.6022 34.3695 25.9993 34.2052 26.2923 33.9126L30.9798 29.2271C31.2558 28.9309 31.4061 28.5392 31.3989 28.1344C31.3918 27.7296 31.2278 27.3434 30.9415 27.0571C30.6552 26.7708 30.269 26.6068 29.8642 26.5997C29.4594 26.5926 29.0677 26.7428 28.7715 27.0188L25.1881 30.5959L21.6048 27.0146C21.4606 26.8655 21.2881 26.7465 21.0975 26.6647C20.9068 26.5829 20.7017 26.5399 20.4943 26.5382C20.2868 26.5365 20.0811 26.5761 19.8891 26.6548C19.6971 26.7335 19.5227 26.8496 19.3761 26.9963C19.2294 27.1431 19.1135 27.3176 19.035 27.5097C18.9565 27.7017 18.9171 27.9075 18.919 28.115C18.9209 28.3224 18.9641 28.5275 19.0461 28.718C19.1281 28.9086 19.2472 29.081 19.3965 29.2251L24.084 33.9126ZM25.1881 18.8646C24.7461 18.8646 24.3222 18.689 24.0096 18.3765C23.6971 18.0639 23.5215 17.64 23.5215 17.198C23.5215 16.756 23.6971 16.332 24.0096 16.0195C24.3222 15.7069 24.7461 15.5313 25.1881 15.5313C25.6302 15.5313 26.0541 15.7069 26.3667 16.0195C26.6792 16.332 26.8548 16.756 26.8548 17.198C26.8548 17.64 26.6792 18.0639 26.3667 18.3765C26.0541 18.689 25.6302 18.8646 25.1881 18.8646ZM23.5215 23.0646C23.5215 23.2835 23.5646 23.5002 23.6483 23.7024C23.7321 23.9047 23.8549 24.0884 24.0096 24.2432C24.1644 24.3979 24.3481 24.5207 24.5503 24.6044C24.7526 24.6882 24.9693 24.7313 25.1881 24.7313C25.407 24.7313 25.6237 24.6882 25.826 24.6044C26.0282 24.5207 26.2119 24.3979 26.3667 24.2432C26.5214 24.0884 26.6442 23.9047 26.7279 23.7024C26.8117 23.5002 26.8548 23.2835 26.8548 23.0646C26.8548 22.6226 26.6792 22.1987 26.3667 21.8861C26.0541 21.5736 25.6302 21.398 25.1881 21.398C24.7461 21.398 24.3222 21.5736 24.0096 21.8861C23.6971 22.1987 23.5215 22.6226 23.5215 23.0646Z" fill="#D8E3F4"/>
<path fill-rule="evenodd" clip-rule="evenodd" d="M25.0845 4.1687C20.9405 4.1687 16.9662 5.8149 14.0359 8.74516C11.1057 11.6754 9.45947 15.6497 9.45947 19.7937V30.2104C9.45947 34.3544 11.1057 38.3287 14.0359 41.2589C16.9662 44.1892 20.9405 45.8354 25.0845 45.8354C29.2285 45.8354 33.2028 44.1892 36.133 41.2589C39.0633 38.3287 40.7095 34.3544 40.7095 30.2104V19.7937C40.7095 15.6497 39.0633 11.6754 36.133 8.74516C33.2028 5.8149 29.2285 4.1687 25.0845 4.1687ZM12.5845 19.7937C12.5845 16.4785 13.9014 13.2991 16.2456 10.9549C18.5898 8.61066 21.7693 7.2937 25.0845 7.2937C28.3997 7.2937 31.5791 8.61066 33.9233 10.9549C36.2675 13.2991 37.5845 16.4785 37.5845 19.7937V30.2104C37.5845 33.5256 36.2675 36.705 33.9233 39.0492C31.5791 41.3934 28.3997 42.7104 25.0845 42.7104C21.7693 42.7104 18.5898 41.3934 16.2456 39.0492C13.9014 36.705 12.5845 33.5256 12.5845 30.2104V19.7937Z" fill="#D8E3F4"/>
</svg>
