<svg width="35" height="35" viewBox="0 0 35 35" fill="none" xmlns="http://www.w3.org/2000/svg">
<path d="M0.48125 14.3395L7.83125 6.98946C8.23958 6.58113 8.72083 6.28946 9.275 6.11446C9.82917 5.93946 10.3979 5.91029 10.9812 6.02696L13.2562 6.50821C11.6812 8.37488 10.4417 10.0665 9.5375 11.5832C8.63333 13.0999 7.75833 14.9374 6.9125 17.0957L0.48125 14.3395ZM9.45 18.3207C10.1208 16.2207 11.0326 14.2374 12.1852 12.3707C13.3379 10.504 14.7303 8.75404 16.3625 7.12071C18.9292 4.55404 21.8604 2.63663 25.1562 1.36846C28.4521 0.100295 31.5292 -0.286455 34.3875 0.208212C34.8833 3.06655 34.5042 6.14363 33.25 9.43946C31.9958 12.7353 30.0854 15.6665 27.5187 18.2332C25.9146 19.8374 24.1646 21.2304 22.2687 22.4122C20.3729 23.594 18.375 24.5198 16.275 25.1895L9.45 18.3207ZM21.525 13.0707C22.1958 13.7415 23.0201 14.077 23.9977 14.077C24.9754 14.077 25.7991 13.7415 26.4687 13.0707C27.1384 12.3999 27.4738 11.5762 27.475 10.5997C27.4762 9.62321 27.1407 8.79896 26.4687 8.12696C25.7967 7.45496 24.9731 7.11954 23.9977 7.12071C23.0224 7.12188 22.1982 7.4573 21.525 8.12696C20.8518 8.79663 20.5164 9.62088 20.5187 10.5997C20.5211 11.5785 20.8565 12.4022 21.525 13.0707ZM20.3 34.1145L17.5 27.6832C19.6583 26.8374 21.5034 25.9624 23.0353 25.0582C24.5671 24.154 26.2658 22.9145 28.1313 21.3395L28.5688 23.6145C28.6854 24.1978 28.6563 24.7741 28.4813 25.3435C28.3063 25.9128 28.0146 26.401 27.6063 26.8082L20.3 34.1145ZM3.28125 23.9207C4.30208 22.8999 5.54167 22.3819 7 22.3667C8.45833 22.3515 9.69792 22.855 10.7188 23.877C11.7396 24.899 12.25 26.1385 12.25 27.5957C12.25 29.0529 11.7396 30.2925 10.7188 31.3145C9.98958 32.0436 8.77217 32.6707 7.0665 33.1957C5.36083 33.7207 3.00533 34.1874 0 34.5957C0.408333 31.5915 0.875 29.2436 1.4 27.552C1.925 25.8603 2.55208 24.6499 3.28125 23.9207Z" fill="#D8E3F4"/>
</svg>
