<svg width="37" height="35" viewBox="0 0 37 35" fill="none" xmlns="http://www.w3.org/2000/svg">
<path d="M29.75 8.75V3.5C29.75 3.03587 29.5656 2.59075 29.2374 2.26256C28.9092 1.93437 28.4641 1.75 28 1.75H5.25C4.32174 1.75 3.4315 2.11875 2.77513 2.77513C2.11875 3.4315 1.75 4.32174 1.75 5.25C1.75 6.17826 2.11875 7.0685 2.77513 7.72487C3.4315 8.38125 4.32174 8.75 5.25 8.75H31.5C31.9641 8.75 32.4092 8.93437 32.7374 9.26256C33.0656 9.59075 33.25 10.0359 33.25 10.5V17.5M33.25 17.5H28C27.0717 17.5 26.1815 17.8687 25.5251 18.5251C24.8687 19.1815 24.5 20.0717 24.5 21C24.5 21.9283 24.8687 22.8185 25.5251 23.4749C26.1815 24.1313 27.0717 24.5 28 24.5H33.25C33.7141 24.5 34.1592 24.3156 34.4874 23.9874C34.8156 23.6592 35 23.2141 35 22.75V19.25C35 18.7859 34.8156 18.3408 34.4874 18.0126C34.1592 17.6844 33.7141 17.5 33.25 17.5Z" stroke="#D8E3F4" stroke-width="3.5" stroke-linecap="round" stroke-linejoin="round"/>
<path d="M1.75 5.25V29.75C1.75 30.6783 2.11875 31.5685 2.77513 32.2249C3.4315 32.8813 4.32174 33.25 5.25 33.25H31.5C31.9641 33.25 32.4092 33.0656 32.7374 32.7374C33.0656 32.4092 33.25 31.9641 33.25 31.5V24.5" stroke="#D8E3F4" stroke-width="3.5" stroke-linecap="round" stroke-linejoin="round"/>
</svg>
