<svg width="68" height="68" viewBox="0 0 68 68" fill="none" xmlns="http://www.w3.org/2000/svg">
<path fill-rule="evenodd" clip-rule="evenodd" d="M4.941 4.941C0 9.88875 0 17.8402 0 33.75C0 49.6598 0 57.6146 4.941 62.5556C9.88875 67.5 17.8402 67.5 33.75 67.5C49.6598 67.5 57.6146 67.5 62.5556 62.5556C67.5 57.618 67.5 49.6598 67.5 33.75C67.5 17.8402 67.5 9.88538 62.5556 4.941C57.618 0 49.6598 0 33.75 0C17.8402 0 9.88538 0 4.941 4.941ZM14.931 25.38C15.3608 24.8646 15.9776 24.5409 16.6459 24.4802C17.3142 24.4194 17.9793 24.6265 18.495 25.056L19.4299 25.8323C21.4717 27.5333 23.2099 28.9811 24.4114 30.3143C25.6905 31.7318 26.6861 33.3551 26.6861 35.4375C26.6861 37.5199 25.6905 39.1466 24.4114 40.5607C23.2099 41.8939 21.4717 43.3417 19.4299 45.0427L18.495 45.819C18.241 46.0412 17.9451 46.2104 17.6247 46.3166C17.3043 46.4228 16.9659 46.4638 16.6294 46.4373C16.293 46.4108 15.9652 46.3172 15.6654 46.1622C15.3656 46.0071 15.0998 45.7937 14.8838 45.5344C14.6677 45.2751 14.5057 44.9752 14.4072 44.6523C14.3087 44.3295 14.2758 43.9902 14.3104 43.6545C14.345 43.3187 14.4464 42.9933 14.6086 42.6973C14.7708 42.4013 14.9906 42.1408 15.255 41.931L16.0448 41.2729C18.2689 39.4166 19.7235 38.2016 20.655 37.1689C21.5392 36.1901 21.6236 35.7278 21.6236 35.4375C21.6236 35.1472 21.5392 34.6883 20.655 33.7061C19.7201 32.6734 18.2689 31.455 16.0448 29.6021L15.255 28.944C14.7396 28.5142 14.4159 27.8974 14.3552 27.2291C14.2944 26.5608 14.5015 25.8957 14.931 25.38ZM53.1562 43.875C53.1562 44.5463 52.8896 45.1902 52.4149 45.6649C51.9402 46.1396 51.2963 46.4062 50.625 46.4062H33.75C33.0787 46.4062 32.4348 46.1396 31.9601 45.6649C31.4854 45.1902 31.2188 44.5463 31.2188 43.875C31.2188 43.2037 31.4854 42.5598 31.9601 42.0851C32.4348 41.6104 33.0787 41.3438 33.75 41.3438H50.625C51.2963 41.3438 51.9402 41.6104 52.4149 42.0851C52.8896 42.5598 53.1562 43.2037 53.1562 43.875Z" fill="#D8E3F4"/>
</svg>
